<svg width="24" height="25" viewBox="0 0 24 25" fill="none" xmlns="http://www.w3.org/2000/svg">
<path d="M8.16003 11.1945L10.9152 14.132C11.052 14.284 11.2194 14.4057 11.4063 14.4889C11.5931 14.5721 11.7955 14.6152 12 14.6152C12.2046 14.6152 12.407 14.5721 12.5938 14.4889C12.7807 14.4057 12.948 14.284 13.0848 14.132L15.84 11.1945" stroke="white" stroke-opacity="0.5" stroke-linecap="round" stroke-linejoin="round"/>
<path d="M3.35999 17.3768V7.77682C3.35999 5.65598 5.07921 3.93682 7.19999 3.93682H16.8C18.9207 3.93682 20.64 5.65598 20.64 7.77682V17.3768C20.64 19.4976 18.9207 21.2168 16.8 21.2168H7.19999C5.07921 21.2168 3.35999 19.4976 3.35999 17.3768Z" stroke="white" stroke-opacity="0.5" stroke-linecap="round" stroke-linejoin="round"/>
</svg>
