<svg width="24" height="24" viewBox="0 0 24 24" fill="none" xmlns="http://www.w3.org/2000/svg">
<path d="M6.81 10.5299L9.81 9.74995C10.14 9.65995 10.35 9.32995 10.26 8.96995C10.17 8.63995 9.84 8.42995 9.48 8.51995L7.92 8.93995C8.43 8.27995 9.09 7.73995 9.9 7.37995C11.13 6.83995 12.48 6.80995 13.74 7.28995C14.97 7.76995 15.96 8.72995 16.5 9.92995C16.65 10.2599 17.01 10.3799 17.34 10.2599C17.67 10.1099 17.79 9.74995 17.67 9.41995C17.01 7.88995 15.78 6.71995 14.22 6.08995C12.66 5.48995 10.95 5.51995 9.42 6.17995C8.4 6.62995 7.56 7.31995 6.9 8.18995L6.51 6.71995C6.42 6.38995 6.09 6.17995 5.73 6.26995C5.4 6.35995 5.19 6.68995 5.28 7.04995L6.06 10.0499C6.15 10.4699 6.36 10.6499 6.81 10.5299ZM18.54 16.8899L17.76 13.9199C17.76 13.9199 17.64 13.3199 17.04 13.4699L14.04 14.2499C13.71 14.3399 13.5 14.6699 13.59 15.0299C13.68 15.3599 14.01 15.5699 14.37 15.4799L15.93 15.0599C14.61 16.7999 12.27 17.5199 10.14 16.6799C8.91 16.1999 7.92 15.2399 7.38 14.0399C7.23 13.7099 6.87 13.5899 6.54 13.7099C6.21 13.8599 6.09 14.2199 6.21 14.5499C6.87 16.0799 8.1 17.2499 9.66 17.8799C10.41 18.1799 11.16 18.2999 11.94 18.2999C13.92 18.2999 15.78 17.3699 16.98 15.7499L17.37 17.2199C17.43 17.4899 17.7 17.6999 17.97 17.6999C18.03 17.6999 18.09 17.6999 18.12 17.6699C18.42 17.5499 18.63 17.2199 18.54 16.8899Z" fill="white" fill-opacity="0.5"/>
</svg>
