<svg width="51" height="38" viewBox="0 0 51 38" fill="none" xmlns="http://www.w3.org/2000/svg">
<path d="M12.5411 12.6503L6.67366 2.69365C5.96815 1.49642 6.85018 0 8.2614 0H18.4369C19.092 0 19.6972 0.342333 20.0247 0.898028L26.9502 12.6503C27.2776 13.206 27.2776 13.8904 26.9502 14.446L13.5993 37.1019C13.2718 37.6576 12.6666 38 12.0116 38H1.836C0.424808 38 -0.457229 36.5036 0.248282 35.3063L12.5411 14.446C12.8684 13.8904 12.8684 13.206 12.5411 12.6503Z" fill="white"/>
<path d="M29.3591 11.2262L24.3331 2.6972C23.6276 1.49997 24.5096 0.00354605 25.9208 0.00354605H44.138C44.7929 0.00354605 45.3982 0.34588 45.7257 0.901577L50.7517 9.43054C51.4572 10.6278 50.5751 12.1242 49.164 12.1242H30.9469C30.2918 12.1242 29.6866 11.7819 29.3591 11.2262Z" fill="white"/>
<path d="M24.2765 24.4027L29.3591 15.7777C29.6866 15.222 30.2918 14.8797 30.9469 14.8797H49.164C50.5751 14.8797 51.4572 16.3761 50.7517 17.5733L45.6691 26.1983C45.3416 26.754 44.7364 27.0964 44.0814 27.0964H25.8642C24.4531 27.0964 23.571 25.5999 24.2765 24.4027Z" fill="white"/>
</svg>
